# xmcd CD database file
#
# Track frame offsets:
#	150
#	19176
#	34048
#	48528
#	78442
#	101168
#	119951
#	138399
#	153404
#	179441
#	211633
#	227984
#
# Disc length: 3414 seconds
#
# Revision: 1
# Processed by: cddbd v1.5.2PL0 Copyright (c) Steve Scherf et al.
# Submitted via: CDex 1.70beta2
#
DISCID=a60d540c
DTITLE=Revolution - Revolution
DYEAR=2009
DGENRE=Hip-Hop
TTITLE0=Norman Cook and The Revolution ft. Lateef the Truth Speaker - Shelter
TTITLE1=Guy Sigsworth and The Revolution - Crazy Love
TTITLE2=Guy Sigsworth and The Revolution - 03 Cuba Boom
TTITLE3=Marius de Vries and The Revolution ft. Roisin Murphy - Yellow Moon
TTITLE4=Norman Cook and The Revolution - Siente Mi Ritmo
TTITLE5=The Revolution - You Wouldn't Want To Be Me
TTITLE6=Rich File and The Revolution - Lies
TTITLE7=Poet Name Life and The Revolution ft. Orishas - 14Me
TTITLE8=Poet Name Life and The Revolution - Dark House Love
TTITLE9=Marius de Vries and The Revolution - Guantanamero
TTITLE10=The Revolution ft. Jenna G - Black Dollar
TTITLE11=Rich File and The Revolution - In Time
EXTD=YEAR: 2009
EXTT0=
EXTT1=
EXTT2=
EXTT3=
EXTT4=
EXTT5=
EXTT6=
EXTT7=
EXTT8=
EXTT9=
EXTT10=
EXTT11=
PLAYORDER=
